{
	"asset":{
		"generator":"Khronos glTF Blender I/O v4.2.57",
		"version":"2.0"
	},
	"scene":0,
	"scenes":[
		{
			"name":"Scene",
			"nodes":[
				0
			]
		}
	],
	"nodes":[
		{
			"mesh":0,
			"name":"FBHead"
		}
	],
	"materials":[
		{
			"doubleSided":true,
			"name":"FBHead_preview_mat",
			"pbrMetallicRoughness":{
				"baseColorTexture":{
					"index":0
				},
				"metallicFactor":0,
				"roughnessFactor":0.5
			}
		}
	],
	"meshes":[
		{
			"name":"FBHead_mesh",
			"primitives":[
				{
					"attributes":{
						"POSITION":0,
						"NORMAL":1,
						"TEXCOORD_0":2
					},
					"indices":3,
					"material":0
				}
			]
		}
	],
	"textures":[
		{
			"sampler":0,
			"source":0
		}
	],
	"images":[
		{
			"mimeType":"image/png",
			"name":"FBHead_baked_tex",
			"uri":"FBHead_baked_tex.png"
		}
	],
	"accessors":[
		{
			"bufferView":0,
			"componentType":5126,
			"count":18097,
			"max":[
				0.8317603468894958,
				1.0899642705917358,
				1.129367470741272
			],
			"min":[
				-0.7982482314109802,
				-1.4062471389770508,
				-0.5318499803543091
			],
			"type":"VEC3"
		},
		{
			"bufferView":1,
			"componentType":5126,
			"count":18097,
			"type":"VEC3"
		},
		{
			"bufferView":2,
			"componentType":5126,
			"count":18097,
			"type":"VEC2"
		},
		{
			"bufferView":3,
			"componentType":5123,
			"count":107862,
			"type":"SCALAR"
		}
	],
	"bufferViews":[
		{
			"buffer":0,
			"byteLength":217164,
			"byteOffset":0,
			"target":34962
		},
		{
			"buffer":0,
			"byteLength":217164,
			"byteOffset":217164,
			"target":34962
		},
		{
			"buffer":0,
			"byteLength":144776,
			"byteOffset":434328,
			"target":34962
		},
		{
			"buffer":0,
			"byteLength":215724,
			"byteOffset":579104,
			"target":34963
		}
	],
	"samplers":[
		{
			"magFilter":9729,
			"minFilter":9987
		}
	],
	"buffers":[
		{
			"byteLength":794828,
			"uri":"tar.bin"
		}
	]
}
