<svg width="340" height="40" viewBox="0 0 340 40" fill="none" xmlns="http://www.w3.org/2000/svg">
<mask id="mask0_3136_2250" style="mask-type:luminance" maskUnits="userSpaceOnUse" x="0" y="0" width="340" height="40">
<path d="M339.845 0H0V40H339.845V0Z" fill="white"/>
</mask>
<g mask="url(#mask0_3136_2250)">
<path d="M81.8301 15.3801L88.0011 5.20555C88.9671 3.63925 90.3191 2.34765 91.9281 1.45475C93.5361 0.56185 95.3471 0.0975488 97.1861 0.106449H105.272C105.35 0.108349 105.426 0.13045 105.493 0.17065C105.56 0.21085 105.615 0.267849 105.653 0.335849C105.691 0.403849 105.711 0.480647 105.71 0.558647C105.71 0.636747 105.689 0.713249 105.65 0.780849L89.3251 27.6604L81.8301 15.3801Z" fill="#00A4EB"/>
<path d="M34.5783 40.0002H60.1366C60.2526 40.0002 60.3637 39.954 60.4458 39.8719C60.5278 39.7898 60.574 39.6785 60.574 39.5624V29.9203C60.571 29.8051 60.5239 29.6955 60.4425 29.6141C60.3612 29.5326 60.2516 29.4855 60.1366 29.4826H46.4472C46.3322 29.4796 46.2227 29.4325 46.1413 29.351C46.0599 29.2696 46.0128 29.16 46.0098 29.0448V25.4956C46.0098 25.3784 46.0554 25.2658 46.1371 25.1818C46.2188 25.0978 46.3302 25.0491 46.4472 25.046H54.7223C54.7807 25.0476 54.8388 25.0374 54.8932 25.0161C54.9477 24.9948 54.9973 24.9628 55.0392 24.922C55.081 24.8812 55.1143 24.8324 55.137 24.7785C55.1598 24.7247 55.1714 24.6667 55.1714 24.6083V15.3802C55.1714 15.261 55.1241 15.1466 55.0399 15.0623C54.9556 14.978 54.8415 14.9306 54.7223 14.9306H46.4472C46.3312 14.9306 46.2199 14.8845 46.1379 14.8024C46.0558 14.7203 46.0098 14.609 46.0098 14.4929V10.9437C46.0422 10.8545 46.1019 10.7778 46.1805 10.7247C46.259 10.6716 46.3525 10.6447 46.4472 10.6479H63.7185C63.7944 10.6485 63.8689 10.6684 63.935 10.7056C64.0012 10.7428 64.0567 10.7963 64.0967 10.8608L81.8291 40.0475L89.3242 27.7079L75.6581 5.14656C74.6851 3.58786 73.3281 2.30566 71.7181 1.42316C70.1071 0.540555 68.2972 0.0871544 66.4611 0.106554H34.5429C34.4258 0.106554 34.3133 0.152257 34.2293 0.234057C34.1454 0.315857 34.0968 0.427156 34.0938 0.544356V39.5861C34.0965 39.6457 34.1116 39.7042 34.1379 39.7578C34.1642 39.8115 34.2013 39.8592 34.2467 39.898C34.2921 39.9368 34.3448 39.9658 34.4019 39.9834C34.459 40.001 34.519 40.0067 34.5783 40.0002Z" fill="#0D2C54"/>
<path d="M15.4627 39.8935C24.9199 39.8935 30.8307 34.9719 30.8307 27.0452C30.8307 18.1485 23.3477 16.22 17.827 14.8122C14.2806 13.9249 12.0699 13.2978 12.0699 11.7716C12.0699 10.2455 13.654 9.8787 15.0017 9.8787C15.711 9.8787 17.9571 10.068 18.2053 12.2449C18.214 12.3527 18.2624 12.4535 18.341 12.5277C18.4195 12.602 18.5228 12.6446 18.6309 12.6471H29.1875C29.2469 12.6488 29.3061 12.6382 29.3613 12.6162C29.4166 12.5942 29.4667 12.5612 29.5088 12.5191C29.5508 12.477 29.5838 12.4268 29.6058 12.3715C29.6278 12.3162 29.6383 12.257 29.6367 12.1976C29.4239 4.5548 24.0215 0 15.1081 0C5.91088 0 0.472978 4.5075 0.472978 12.0438C0.472978 20.8695 7.68418 22.6915 12.9566 23.9692H13.063H13.1812C16.7276 24.8447 18.9737 25.4599 18.9737 27.1754C18.9737 28.8908 17.1887 29.6953 15.4273 29.6953C13.6659 29.6953 11.8808 28.9382 11.7153 26.8204C11.7065 26.7095 11.657 26.6057 11.5762 26.5292C11.4954 26.4527 11.3891 26.409 11.2779 26.4064H0.449376C0.389976 26.4047 0.330777 26.4152 0.275577 26.4373C0.220277 26.4593 0.170178 26.4923 0.128078 26.5344C0.0860776 26.5765 0.0530775 26.6267 0.0310775 26.682C0.00907746 26.7373 -0.0015235 26.7965 0.000176505 26.8559C0.212977 34.9364 6.10008 39.8935 15.4627 39.8935Z" fill="#0D2C54"/>
<path d="M103.462 39.9999H129.02C129.079 40.0015 129.137 39.9913 129.191 39.97C129.246 39.9487 129.295 39.9167 129.337 39.8759C129.379 39.8351 129.412 39.7863 129.435 39.7324C129.458 39.6785 129.469 39.6206 129.469 39.5621V29.92C129.466 29.8029 129.418 29.6915 129.334 29.6098C129.25 29.528 129.137 29.4823 129.02 29.4823H115.343C115.227 29.4823 115.115 29.4362 115.033 29.3541C114.951 29.272 114.905 29.1606 114.905 29.0446V25.4953C114.904 25.4368 114.914 25.3786 114.935 25.3242C114.956 25.2697 114.988 25.22 115.029 25.1781C115.07 25.1362 115.119 25.1029 115.173 25.0801C115.226 25.0574 115.284 25.0457 115.343 25.0457H123.618C123.734 25.0457 123.845 24.9996 123.927 24.9175C124.009 24.8354 124.055 24.7241 124.055 24.608V15.38C124.055 15.2627 124.01 15.1502 123.928 15.0662C123.846 14.9822 123.735 14.9335 123.618 14.9304H115.343C115.285 14.932 115.227 14.9218 115.173 14.9004C115.12 14.879 115.071 14.8468 115.03 14.8058C114.989 14.7648 114.957 14.7159 114.935 14.6621C114.914 14.6082 114.904 14.5506 114.905 14.4926V10.9434C114.936 10.8531 114.995 10.7754 115.074 10.722C115.153 10.6686 115.248 10.6425 115.343 10.6476H133.512C133.63 10.6476 133.742 10.6933 133.826 10.7751C133.91 10.8569 133.959 10.9682 133.962 11.0854V39.5621C133.96 39.6201 133.97 39.6777 133.992 39.7316C134.013 39.7854 134.045 39.8343 134.086 39.8753C134.127 39.9163 134.176 39.9485 134.23 39.9699C134.284 39.9913 134.341 40.0015 134.399 39.9999H144.589C144.648 40.0015 144.706 39.9913 144.76 39.97C144.815 39.9487 144.864 39.9167 144.906 39.8759C144.948 39.8351 144.981 39.7863 145.004 39.7324C145.027 39.6785 145.038 39.6206 145.038 39.5621V22.999L154.496 39.8224C154.534 39.8918 154.591 39.9493 154.66 39.9889C154.728 40.0285 154.806 40.0486 154.886 40.0472H163.551C163.609 40.0488 163.667 40.0386 163.722 40.0173C163.776 39.9961 163.826 39.9641 163.868 39.9233C163.91 39.8825 163.943 39.8337 163.966 39.7798C163.988 39.7259 164 39.668 164 39.6095V0.544099C163.997 0.426899 163.948 0.315601 163.864 0.233801C163.781 0.152101 163.668 0.106301 163.551 0.106401H153.361C153.244 0.106301 153.131 0.152101 153.047 0.233801C152.963 0.315601 152.915 0.426899 152.912 0.544099V16.4447L143.951 0.331201C143.912 0.261801 143.856 0.204301 143.787 0.164701C143.718 0.125101 143.64 0.104901 143.561 0.106401H110.46C110.384 0.105901 110.309 0.125199 110.243 0.162599C110.177 0.199899 110.121 0.253999 110.082 0.319299L103.084 11.8307V12.0673V39.5621C103.083 39.6687 103.121 39.7719 103.19 39.8525C103.26 39.9331 103.357 39.9855 103.462 39.9999Z" fill="#0D2C54"/>
<path d="M249.435 12.4579L256.882 24.8447L250.7 35.0074C249.729 36.5651 248.374 37.8468 246.766 38.7294C245.157 39.612 243.349 40.0658 241.514 40.0473H233.428C233.351 40.0479 233.274 40.0277 233.207 39.989C233.14 39.9502 233.084 39.8942 233.046 39.8268C233.007 39.7593 232.987 39.6829 232.988 39.6052C232.989 39.5275 233.01 39.4515 233.05 39.3848L249.435 12.4579Z" fill="#006FFF"/>
<path d="M324.49 40C333.947 40 339.858 35.0783 339.858 27.1517C339.858 18.2549 332.375 16.3265 326.854 14.9186H326.783C323.237 14.0313 321.038 13.4043 321.038 11.8781C321.038 10.3519 322.61 9.98524 323.958 9.98524C324.679 9.98524 326.913 10.1745 327.162 12.3513C327.17 12.4612 327.22 12.5636 327.302 12.6382C327.383 12.7127 327.489 12.754 327.599 12.7536H338.156C338.215 12.7536 338.273 12.742 338.327 12.7194C338.382 12.6968 338.431 12.6637 338.473 12.6219C338.515 12.5802 338.548 12.5306 338.571 12.4761C338.593 12.4215 338.605 12.3631 338.605 12.304C338.439 4.66135 333.049 0.106445 324.135 0.106445C314.962 0.106445 309.488 4.61405 309.488 12.1502C309.488 20.976 316.711 22.798 321.972 24.0757H322.09H322.208C325.755 24.9512 327.989 25.5664 327.989 27.2818C327.989 28.9973 326.216 29.8136 324.443 29.8136C322.669 29.8136 320.896 29.0446 320.742 26.9269C320.731 26.8149 320.679 26.711 320.596 26.6348C320.513 26.5585 320.406 26.5151 320.293 26.5128H309.453C309.333 26.5159 309.218 26.5659 309.135 26.6521C309.051 26.7383 309.004 26.8539 309.004 26.9742C309.24 35.0429 315.115 40 324.49 40Z" fill="#0D2C54"/>
<path d="M175.49 40H186.378C186.435 40.0016 186.493 39.9914 186.547 39.97C186.601 39.9486 186.65 39.9164 186.69 39.8754C186.731 39.8344 186.764 39.7855 186.785 39.7317C186.806 39.6778 186.817 39.6202 186.815 39.5622V29.8964C186.818 29.7793 186.867 29.6679 186.951 29.5862C187.035 29.5044 187.147 29.4587 187.264 29.4587H191.508C193.431 29.4888 195.341 29.1271 197.12 28.3956C198.899 27.6642 200.511 26.5782 201.858 25.2038C203.205 23.8294 204.258 22.1953 204.954 20.4007C205.65 18.6061 205.974 16.6887 205.907 14.7648C205.883 6.27035 199.783 0.106445 191.508 0.106445H175.49C175.375 0.109445 175.265 0.156545 175.184 0.238045C175.103 0.319445 175.056 0.429047 175.053 0.544247V39.5859C175.059 39.6978 175.107 39.8032 175.189 39.8802C175.27 39.9573 175.378 40.0001 175.49 40ZM186.779 11.4522C186.779 11.3937 186.791 11.3358 186.814 11.2819C186.837 11.228 186.87 11.1792 186.912 11.1384C186.954 11.0976 187.003 11.0656 187.058 11.0443C187.112 11.023 187.17 11.0129 187.229 11.0145H190.326C190.815 10.9989 191.302 11.0877 191.755 11.275C192.207 11.4623 192.615 11.7437 192.95 12.1006C193.285 12.4576 193.541 12.8818 193.7 13.3452C193.859 13.8087 193.918 14.3006 193.872 14.7885C193.918 15.2763 193.859 15.7683 193.7 16.2317C193.541 16.6951 193.285 17.1194 192.95 17.4763C192.615 17.8333 192.207 18.1147 191.755 18.302C191.302 18.4893 190.815 18.5781 190.326 18.5625H187.323C187.204 18.5625 187.09 18.5152 187.006 18.4308C186.921 18.3465 186.874 18.2322 186.874 18.1129L186.779 11.4522Z" fill="#0D2C54"/>
<path d="M209.631 40H228.249C228.326 40.0017 228.401 39.9828 228.468 39.9454C228.534 39.9079 228.59 39.8532 228.628 39.787L234.479 30.1567C234.518 30.0892 234.539 30.0126 234.54 29.9346C234.54 29.8566 234.52 29.7798 234.482 29.7117C234.444 29.6437 234.389 29.5868 234.322 29.5466C234.255 29.5063 234.179 29.4842 234.101 29.4824H221.511C221.394 29.4824 221.282 29.4367 221.198 29.3549C221.114 29.2731 221.065 29.1618 221.062 29.0446V25.4954C221.062 25.3761 221.109 25.2618 221.194 25.1775C221.278 25.0932 221.392 25.0458 221.511 25.0458H229.786C229.902 25.0458 230.014 24.9997 230.096 24.9176C230.178 24.8355 230.224 24.7242 230.224 24.6081V15.38C230.224 15.2628 230.178 15.1502 230.096 15.0662C230.015 14.9823 229.903 14.9335 229.786 14.9305H221.511C221.453 14.932 221.395 14.9219 221.34 14.9006C221.286 14.8793 221.236 14.8473 221.194 14.8065C221.152 14.7657 221.119 14.7169 221.096 14.663C221.074 14.6091 221.062 14.5512 221.062 14.4927V10.9435C221.065 10.8263 221.114 10.715 221.198 10.6332C221.282 10.5514 221.394 10.5057 221.511 10.5057H235.248C235.306 10.5058 235.364 10.4941 235.418 10.4713C235.472 10.4486 235.521 10.4153 235.561 10.3734C235.602 10.3315 235.634 10.2818 235.655 10.2273C235.677 10.1728 235.687 10.1146 235.685 10.0562V0.544247C235.685 0.428147 235.639 0.316745 235.557 0.234745C235.475 0.152645 235.364 0.106445 235.248 0.106445H209.631C209.515 0.106445 209.403 0.152645 209.321 0.234745C209.239 0.316745 209.193 0.428147 209.193 0.544247V39.5859C209.195 39.6418 209.207 39.6969 209.23 39.748C209.253 39.7991 209.286 39.8452 209.326 39.8836C209.367 39.9221 209.415 39.9522 209.467 39.9721C209.519 39.9921 209.575 40.0015 209.631 40Z" fill="#0D2C54"/>
<path d="M288.8 0.106401H278.515C278.4 0.109401 278.291 0.156401 278.209 0.237901C278.128 0.319301 278.081 0.428999 278.078 0.544099V35.0073L256.882 0.106401L249.434 12.4577L263.124 34.9363C264.089 36.4962 265.441 37.78 267.049 38.663C268.656 39.5461 270.464 39.9984 272.297 39.9762H288.847C288.906 39.9778 288.964 39.9677 289.018 39.9464C289.073 39.9251 289.122 39.8931 289.164 39.8523C289.206 39.8115 289.239 39.7627 289.262 39.7088C289.285 39.6549 289.297 39.597 289.297 39.5385V25.0812L297.844 39.7869C297.885 39.8524 297.943 39.9063 298.011 39.9436C298.079 39.9808 298.156 40.0002 298.234 39.9999H310.055C310.134 39.9996 310.21 39.9783 310.278 39.938C310.345 39.8978 310.4 39.8402 310.438 39.7713C310.475 39.7024 310.494 39.6246 310.491 39.5462C310.488 39.4678 310.464 39.3916 310.422 39.3255L298.08 20.2897C298.036 20.2187 298.013 20.1367 298.013 20.0531C298.013 19.9695 298.036 19.8876 298.08 19.8165L309.133 0.7689C309.173 0.7022 309.194 0.626202 309.195 0.548502C309.196 0.470802 309.176 0.394402 309.137 0.326902C309.099 0.259502 309.043 0.203501 308.976 0.164701C308.909 0.126001 308.832 0.105801 308.755 0.106401H298.186C298.107 0.104901 298.029 0.125101 297.96 0.164701C297.891 0.204301 297.835 0.261801 297.796 0.331201L289.249 15.0369V0.544099C289.246 0.426899 289.198 0.315601 289.114 0.233801C289.03 0.152101 288.917 0.106301 288.8 0.106401Z" fill="#0D2C54"/>
</g>
</svg>
